<?xml version="1.0" standalone="no"?>
<!DOCTYPE svg PUBLIC "-//W3C//DTD SVG 20010904//EN"
 "http://www.w3.org/TR/2001/REC-SVG-20010904/DTD/svg10.dtd">
<svg version="1.0" xmlns="http://www.w3.org/2000/svg"
 width="225.000000pt" height="225.000000pt" viewBox="0 0 225.000000 225.000000"
 preserveAspectRatio="xMidYMid meet">

<g transform="translate(0.000000,225.000000) scale(0.100000,-0.100000)"
fill="#000000" stroke="none">
<path d="M2171 1404 c0 -11 3 -14 6 -6 3 7 2 16 -1 19 -3 4 -6 -2 -5 -13z"/>
<path d="M2200 1365 c0 -8 2 -15 4 -15 2 0 6 7 10 15 3 8 1 15 -4 15 -6 0 -10
-7 -10 -15z"/>
<path d="M2233 1250 c0 -25 2 -35 4 -22 2 12 2 32 0 45 -2 12 -4 2 -4 -23z"/>
<path d="M2230 1053 c-1 -5 -3 -25 -6 -45 -4 -24 -2 -38 5 -38 6 0 11 19 11
45 0 25 -2 45 -5 45 -3 0 -5 -3 -5 -7z"/>
<path d="M2190 983 c0 -6 7 -19 17 -28 11 -11 13 -19 5 -24 -7 -4 -8 -18 -2
-41 6 -28 8 -30 9 -10 1 14 4 34 7 46 3 12 -3 30 -15 45 -11 13 -20 19 -21 12z"/>
<path d="M2106 955 c-3 -8 -1 -15 3 -15 5 0 11 7 15 15 3 8 1 15 -3 15 -5 0
-11 -7 -15 -15z"/>
<path d="M2153 933 c-18 -37 -16 -80 3 -91 9 -5 14 -14 10 -21 -8 -12 -47 -15
-45 -3 3 18 -2 32 -12 32 -7 0 -9 -9 -6 -21 4 -15 1 -19 -11 -17 -9 2 -16 11
-16 21 2 20 -7 22 -24 5 -18 -18 -15 -28 8 -28 16 0 20 -7 20 -34 0 -18 3 -54
6 -80 l7 -48 -34 2 c-57 3 -59 2 -59 -40 l0 -40 -40 0 c-34 0 -40 -3 -41 -22
-1 -13 -2 -30 -3 -38 -1 -11 -19 -16 -76 -20 l-75 -5 -3 -78 -3 -78 -37 3
c-37 3 -37 3 -40 -39 l-3 -43 -80 0 -79 0 0 -40 0 -40 -40 0 c-33 0 -40 -3
-40 -20 0 -13 -7 -20 -20 -20 -11 0 -20 -4 -20 -10 0 -5 -9 -10 -19 -10 -11 0
-26 -6 -33 -13 -7 -7 -33 -19 -58 -26 -25 -7 -49 -15 -55 -16 -5 -2 0 -4 12
-4 12 -1 29 -4 38 -7 10 -4 15 -2 13 6 -2 8 16 18 44 25 27 7 45 9 42 4 -3 -6
6 -7 22 -3 25 6 26 5 13 -8 -10 -12 -19 -13 -32 -6 -10 5 -32 6 -48 3 -23 -5
-28 -10 -19 -20 8 -10 8 -14 -2 -18 -7 -2 -4 -2 7 0 11 2 34 5 50 7 76 10 285
95 285 117 0 5 4 8 9 4 17 -10 183 110 251 181 36 37 56 61 45 53 -18 -13 -19
-13 -6 4 7 9 18 17 24 17 11 0 36 30 37 43 0 5 -5 5 -11 1 -8 -4 -8 0 0 15 14
25 23 28 14 4 -9 -25 0 -16 41 45 31 44 35 56 26 73 -6 11 -9 25 -6 32 2 7 5
5 5 -5 3 -57 51 14 94 140 13 39 14 48 1 79 -9 19 -13 38 -10 41 3 3 6 0 6 -6
0 -7 5 -12 10 -12 14 0 2 70 -14 87 -8 9 -14 6 -23 -14z m24 -35 c-3 -8 -6 -5
-6 6 -1 11 2 17 5 13 3 -3 4 -12 1 -19z m3 -114 c0 -8 -5 -12 -10 -9 -6 4 -8
11 -5 16 9 14 15 11 15 -7z m-26 -69 c-9 -14 -19 -23 -22 -20 -5 4 26 45 35
45 2 0 -4 -11 -13 -25z m-47 -52 c-3 -10 -5 -4 -5 12 0 17 2 24 5 18 2 -7 2
-21 0 -30z m-37 -103 c0 -5 -7 -7 -15 -4 -8 4 -15 8 -15 10 0 2 7 4 15 4 8 0
15 -4 15 -10z m-39 -41 c-5 -13 -10 -19 -10 -12 -1 15 10 45 15 40 3 -2 0 -15
-5 -28z m-178 -206 c-5 -12 -2 -15 10 -10 22 8 21 4 -1 -16 -17 -15 -18 -15
-16 11 2 30 2 32 9 32 2 0 1 -8 -2 -17z m-139 -69 c16 -6 12 -24 -5 -24 -6 0
-8 4 -5 9 4 5 0 12 -6 14 -7 3 -10 6 -6 6 3 1 13 -2 22 -5z m61 -14 c-3 -5
-12 -10 -18 -10 -7 0 -6 4 3 10 19 12 23 12 15 0z m-230 -90 c-3 -5 -11 -10
-16 -10 -6 0 -7 5 -4 10 3 6 11 10 16 10 6 0 7 -4 4 -10z m-4 -40 c-13 -11
-28 -20 -35 -20 -6 0 3 9 19 20 38 25 47 25 16 0z m-101 0 c0 -5 8 -10 17 -10
9 0 14 -2 11 -5 -8 -8 -68 6 -68 16 0 5 9 9 20 9 11 0 20 -4 20 -10z"/>
<path d="M1640 880 l-45 -8 52 1 c29 0 50 4 47 9 -3 4 -6 7 -7 6 -1 0 -22 -4
-47 -8z"/>
<path d="M1240 850 c6 -11 13 -20 16 -20 2 0 0 9 -6 20 -6 11 -13 20 -16 20
-2 0 0 -9 6 -20z"/>
<path d="M1105 849 c-4 -6 -5 -12 -2 -15 2 -3 7 2 10 11 7 17 1 20 -8 4z"/>
<path d="M1296 833 c-6 -14 -5 -15 5 -6 7 7 10 15 7 18 -3 3 -9 -2 -12 -12z"/>
<path d="M1693 767 c-1 -38 0 -39 8 -13 4 16 5 35 1 43 -5 7 -8 -5 -9 -30z"/>
<path d="M1541 767 c9 -7 14 -19 12 -27 -4 -13 -3 -13 6 0 11 16 -3 40 -23 40
-6 0 -4 -6 5 -13z"/>
<path d="M1648 723 c7 -3 16 -2 19 1 4 3 -2 6 -13 5 -11 0 -14 -3 -6 -6z"/>
<path d="M1773 690 c0 -25 2 -35 4 -22 2 12 2 32 0 45 -2 12 -4 2 -4 -23z"/>
<path d="M1483 693 c9 -2 25 -2 35 0 9 3 1 5 -18 5 -19 0 -27 -2 -17 -5z"/>
<path d="M1548 683 c7 -3 16 -2 19 1 4 3 -2 6 -13 5 -11 0 -14 -3 -6 -6z"/>
<path d="M1655 650 c3 -5 8 -10 11 -10 2 0 4 5 4 10 0 6 -5 10 -11 10 -5 0 -7
-4 -4 -10z"/>
<path d="M1790 610 c0 -22 5 -40 10 -40 6 0 10 18 10 40 0 22 -4 40 -10 40 -5
0 -10 -18 -10 -40z"/>
<path d="M1833 610 c0 -25 2 -35 4 -22 2 12 2 32 0 45 -2 12 -4 2 -4 -23z"/>
<path d="M1313 605 c0 -8 4 -12 9 -9 5 3 6 10 3 15 -9 13 -12 11 -12 -6z"/>
<path d="M1642 601 c-11 -6 -11 -10 0 -19 15 -12 32 -4 36 16 2 14 -17 16 -36
3z"/>
<path d="M1402 580 c0 -14 2 -19 5 -12 2 6 2 18 0 25 -3 6 -5 1 -5 -13z"/>
<path d="M1670 560 c-23 -7 -23 -8 -3 -9 12 -1 25 4 28 9 3 6 5 10 3 9 -2 -1
-14 -5 -28 -9z"/>
<path d="M1488 553 c7 -3 16 -2 19 1 4 3 -2 6 -13 5 -11 0 -14 -3 -6 -6z"/>
<path d="M1389 522 c-11 -14 -11 -15 0 -5 16 14 41 6 41 -14 0 -8 5 -11 10 -8
13 8 5 22 -20 35 -13 7 -21 5 -31 -8z"/>
<path d="M1741 516 c-9 -10 -9 -16 -1 -21 6 -4 14 -4 17 -1 4 3 0 6 -8 6 -12
0 -12 2 1 10 8 5 12 12 9 15 -4 3 -12 -1 -18 -9z"/>
<path d="M1625 480 c17 -7 17 -9 3 -9 -22 -1 -25 -41 -3 -41 8 0 15 -4 15 -10
0 -5 9 -10 19 -10 15 0 20 9 23 40 l4 40 -41 -1 c-31 0 -36 -2 -20 -9z"/>
<path d="M831 76 c12 -10 60 -16 54 -6 -3 5 -18 10 -32 10 -15 0 -24 -2 -22
-4z"/>
<path d="M875 40 c-3 -6 1 -7 9 -4 18 7 21 14 7 14 -6 0 -13 -4 -16 -10z"/>
<path d="M995 20 l-40 -7 43 -2 c23 0 42 4 42 9 0 6 -1 9 -2 9 -2 -1 -21 -5
-43 -9z"/>
<path d="M1190 20 c-11 -7 0 -10 38 -10 28 0 52 5 52 10 0 13 -70 13 -90 0z"/>
</g>
</svg>
